<svg
	version="1.2"
	xmlns="http://www.w3.org/2000/svg"
	viewBox="0 0 636 218"
	width="250"
	height="85"
>
	<style>
		path {
			fill: #000;
		}

		@media (prefers-color-scheme: dark) {
			path {
				fill: #fff;
			}
		}
	</style>
	<path
		fill-rule="evenodd"
		d="m216 108.9c0 14.2-2.8 28.2-8.2 41.3-5.4 13.1-13.4 25-23.4 35-10 10-21.9 18-35 23.4-13.1 5.4-27.2 8.2-41.4 8.2-14.2 0-28.2-2.8-41.3-8.2-13.1-5.4-25-13.4-35.1-23.4-10-10-17.9-21.9-23.4-35-5.4-13.1-8.2-27.1-8.2-41.3 0-14.2 2.8-28.2 8.2-41.3 5.5-13.1 13.4-25 23.4-35 10.1-10 22-18 35.1-23.4 13.1-5.4 27.1-8.2 41.3-8.2 14.2 0 28.3 2.8 41.4 8.2 13.1 5.4 25 13.4 35 23.4 10 10 18 21.9 23.4 35 5.4 13.1 8.2 27.1 8.2 41.3zm-168.6-25.8c-9.8 14.6-10.5 33.8-1.4 49 8.9 14.9 26.4 23.5 43.7 20 10.3-2.1 20.6-8.4 26.5-17.5q0.4-0.7 0.9-0.1c21 21.6 55.3 9.5 60.2-19.3 5.9-34.6-34.8-58.5-60.3-32.1q-0.1 0-0.2 0.1 0 0-0.1 0-0.1 0-0.2 0-0.1-0.1-0.2-0.2c-16.9-24.3-52.2-24.6-68.9 0.1zm25 50.3c-3.1-1.3-5.8-3.3-8.1-5.8-2.3-2.5-4.2-5.4-5.4-8.6-1.3-3.3-1.9-6.7-1.9-10.3 0-3.5 0.6-6.9 1.9-10.2 1.2-3.2 3.1-6.1 5.4-8.6 2.3-2.5 5-4.5 8.1-5.8 3-1.3 6.2-2 9.5-2 3.3 0 6.5 0.7 9.6 2 3 1.3 5.8 3.3 8.1 5.8 2.3 2.5 4.1 5.4 5.4 8.6 1.2 3.3 1.9 6.7 1.9 10.3 0 3.5-0.7 6.9-1.9 10.2-1.3 3.2-3.1 6.1-5.4 8.6-2.3 2.5-5.1 4.5-8.1 5.8-3.1 1.3-6.3 2-9.6 2-3.3 0-6.5-0.7-9.5-2zm62.7-6c-2.2-1-4.2-2.4-5.9-4.2-1.6-1.9-3-4-3.9-6.4-0.9-2.3-1.3-4.9-1.3-7.4 0-2.6 0.5-5.1 1.4-7.5 0.9-2.3 2.3-4.4 3.9-6.2 1.7-1.8 3.7-3.3 5.9-4.2 2.2-1 4.5-1.5 6.9-1.5 2.4 0 4.7 0.5 6.9 1.5 2.2 1 4.2 2.4 5.8 4.2 1.7 1.9 3 4 3.9 6.4 0.9 2.3 1.4 4.9 1.4 7.4 0 2.6-0.5 5.1-1.4 7.5-0.9 2.3-2.3 4.4-4 6.2-1.6 1.8-3.6 3.3-5.8 4.2-2.2 1-4.6 1.5-6.9 1.5-2.4 0-4.7-0.5-6.9-1.5z"
	/>
	<path
		d="m322 40.4v10.6q0 0.2 0.1 0.4 0.1 0.2 0.2 0.3 0.2 0.2 0.4 0.3 0.1 0 0.3 0h19.4q0.4 0 0.5 0.4l0.1 2.3q0.1 0.5-0.4 0.5h-20.1q-0.8 0-1.6-0.3-0.7-0.3-1.3-0.9-0.5-0.5-0.8-1.3-0.3-0.7-0.3-1.5v-24.7q0-4.5 4.5-4.5h19.6q0.3 0 0.2 0.3l-0.1 2.9q0 0.2-0.2 0.2l-19.5-0.1q-0.1 0-0.3 0.1-0.2 0.1-0.3 0.2-0.2 0.1-0.2 0.3-0.1 0.2-0.1 0.4l-0.1 9.7q0 0.7 0.7 0.7h18.8q0.9 0 0.9 0.8v1.7q-0.1 0.7-0.8 0.7l-19-0.1q-0.6 0-0.6 0.6z"
	/>
	<path
		d="m378 22.4c0-0.2 0.1-0.3 0.3-0.3h2.9c0.2 0 0.3 0.1 0.3 0.3v32.5c0 0.2-0.1 0.3-0.3 0.3h-2.9c-0.2 0-0.3-0.1-0.3-0.3z"
	/>
	<path
		d="m442.2 50.9v-10.2q0-1.2 1.1-1.3h1q1.4-0.1 1.4 1.3v10.7q0 3.7-3.7 3.8-6.4 0.2-13.1 0c-12-0.4-12.8-12.4-11.7-21.6q1.4-11.1 12.3-11.5 7-0.2 14.9 0 0.8 0.1 0.7 0.9l-0.1 1.6q-0.1 0.7-0.8 0.7-8.3-0.2-15 0.1c-10.4 0.4-9.5 14.5-7.5 21.3 1.2 4.5 4.9 5.3 9 5.4q5.4 0 10.5-0.1 1 0 1-1.1z"
	/>
	<path
		d="m484.7 40.6v14.2q0 0.1-0.1 0.2 0 0-0.1 0.1 0 0.1-0.1 0.1-0.1 0-0.2 0h-2.7q-0.1 0-0.2-0.1 0 0-0.1-0.1-0.1 0-0.1-0.1 0-0.1 0-0.2l-0.1-32.1q0-0.1 0.1-0.2 0-0.1 0.1-0.2 0 0 0.1-0.1 0.1 0 0.2 0l2.7-0.1q0.1 0 0.2 0.1 0.1 0 0.1 0.1 0.1 0 0.1 0.1 0.1 0.1 0.1 0.2v13.8q0 0.1 0 0.2 0 0.1 0.1 0.1 0.1 0.1 0.1 0.1 0.1 0.1 0.2 0.1l18.9-0.1q0.1 0 0.2 0 0.1 0 0.2-0.1 0 0 0.1-0.1 0-0.1 0-0.2v-13.7q0-0.1 0-0.2 0-0.1 0.1-0.2 0.1 0 0.2-0.1 0 0 0.1 0l2.7-0.1q0.1 0 0.2 0 0.1 0.1 0.2 0.1 0 0.1 0.1 0.2 0 0.1 0 0.2v32.3q0 0.1 0 0.2-0.1 0-0.1 0.1-0.1 0.1-0.2 0.1-0.1 0-0.2 0h-2.7q0 0-0.1 0-0.1-0.1-0.2-0.1 0-0.1-0.1-0.2 0-0.1 0-0.1v-14.2q0-0.1-0.1-0.1 0-0.1-0.1-0.2 0-0.1-0.1-0.1-0.1 0-0.2 0l-18.9-0.1q-0.1 0-0.2 0 0 0.1-0.1 0.1-0.1 0.1-0.1 0.2 0 0.1 0 0.2z"
	/>
	<path
		d="m554 25.3l-12.3 0.1q-0.1 0-0.2 0-0.1-0.1-0.1-0.1-0.1-0.1-0.1-0.2-0.1-0.1-0.1-0.1l-0.2-2.5q0-0.5 0.5-0.5h29.2q1.5 0 1 1.4-0.2 0.5-0.1 1 0.3 0.9-0.6 0.9h-12q-0.2 0-0.3 0.1-0.1 0-0.2 0.1-0.1 0.1-0.2 0.3 0 0.1 0 0.2l-0.1 28.6q0 0.6-0.6 0.6h-2.3q-0.1 0-0.2-0.1-0.1 0-0.2-0.1-0.1-0.1-0.1-0.2-0.1-0.1-0.1-0.2v-28.6q0-0.1-0.1-0.3 0-0.1-0.1-0.2-0.1-0.1-0.2-0.1-0.2-0.1-0.3-0.1z"
	/>
	<path
		fill-rule="evenodd"
		d="m444.8 128.3h-33.5q-0.2 0-0.4 0-0.1 0.1-0.3 0.2-0.1 0.1-0.2 0.2-0.1 0.1-0.2 0.3l-6.1 15.5q-0.1 0.2-0.2 0.3-0.1 0.1-0.2 0.2-0.2 0.1-0.3 0.2-0.2 0-0.4 0h-14.5q-0.1 0-0.2 0 0-0.1-0.1-0.1 0-0.1-0.1-0.2 0-0.1 0.1-0.2 13.6-32.6 27.7-65.9c2.9-7 8.8-7.7 15.4-7 6.8 0.7 8.3 5.4 11.1 11.9q12.7 30 25.6 60.7 0 0.2 0 0.3 0 0.2-0.1 0.3-0.1 0.1-0.2 0.2-0.1 0-0.3 0h-14.2q-0.1 0-0.3-0.1-0.1 0-0.3-0.1-0.1-0.1-0.2-0.2-0.1-0.1-0.2-0.3l-6.5-15.7q0-0.1-0.1-0.2-0.1-0.1-0.2-0.2-0.1-0.1-0.3-0.1-0.1-0.1-0.3-0.1zm-29.7-12q-0.1 0.2-0.1 0.4 0 0.2 0.1 0.3 0.2 0.2 0.3 0.3 0.2 0.1 0.4 0.1h24.6q0.2 0 0.3-0.1 0.2-0.1 0.3-0.3 0.1-0.1 0.2-0.3 0-0.2-0.1-0.4l-12.3-30.6q-0.1-0.2-0.3-0.3-0.2-0.1-0.4-0.1-0.3 0-0.5 0.1-0.2 0.1-0.2 0.3z"
	/>
	<path
		d="m314.4 94.6q-0.2-0.1-0.4 0-0.1 0-0.3 0.1-0.1 0.1-0.2 0.2-0.1 0.1-0.2 0.3-6.9 24.3-11.9 42.1-2.1 7.3-9.3 8.7c-6 1.2-13.2 0.4-16.5-5.4q-1.8-3-2.7-6.3-8.7-30.2-17.5-60.6 0-0.2 0-0.3 0-0.1 0.1-0.3 0.1-0.1 0.2-0.1 0.1-0.1 0.3-0.1h17.8q0.5 0 0.6 0.5 6 23.1 13 49.2 0.2 1 0.8 1.7 0.2 0.3 0.4 0.4 0.3 0.1 0.5 0 0.3 0 0.5-0.2 0.2-0.2 0.3-0.4 6-21.2 12.5-44.2 1.6-5.8 7.3-7.2c4.7-1.2 11.1-0.7 14.3 3.2q1.4 1.7 2.7 6.4 5.8 20.7 11.7 41.5 0 0 0 0.1 0 0.1 0.1 0.2 0 0 0.1 0.1 0.1 0 0.1 0.1 1.5 1 2-0.8 6.2-22.8 13.3-50.1 0-0.1 0.1-0.2 0.1-0.1 0.2-0.2 0.1-0.1 0.2-0.1 0.1 0 0.2 0h17.8q0.1 0 0.2 0 0.2 0.1 0.3 0.2 0 0.1 0.1 0.3 0 0.1 0 0.3-7.9 26.3-16.2 55.8c-3.1 10.9-5.5 18.2-18.9 16.8q-8.8-1-11.1-9.2-5.7-20.3-11.8-41.8-0.2-0.6-0.7-0.7z"
	/>
	<path
		d="m518.3 136.8q0.3 0 0.7 0 0.3 0 0.6-0.2 0.3-0.2 0.5-0.4 0.3-0.3 0.4-0.6 11.9-31.5 23.7-62.5 0 0 0-0.1 0.1 0 0.1-0.1 0.1 0 0.1 0 0.1 0 0.1 0l10.2-0.1q0.1 0 0.1 0.1 0 0 0.1 0 0 0 0 0.1 0 0 0 0-13.5 33.9-27 67.3-2.8 6.9-10.4 5.9-5.4-0.6-7.4-5.7-13.6-33.7-26.9-67.4-0.1 0-0.1-0.1 0 0 0.1 0 0-0.1 0-0.1 0.1 0 0.1 0l10.2-0.1q0 0 0.1 0 0 0.1 0.1 0.1 0 0 0.1 0.1 0 0 0 0.1 11.7 31 23.4 62.2 0.5 1.3 1.1 1.5z"
	/>
	<path
		d="m588.3 106.1l43.9 0.1q1.3 0 1.3 1.3v1.5q0 1.2-1.1 1.2h-44.1q-0.8 0-0.8 0.8 0 11.4 0 25.4 0 4.7 4.6 4.7 19.4 0 42 0.1 0.4 0 0.5 0.4 0.2 1.4-0.1 2.9-0.1 0.6-0.6 0.6-28.2 0.1-42.7 0-8.5-0.1-8.4-9.1 0.1-25.2-0.1-50c-0.1-6.9 0.2-13 8.5-13q22.3-0.1 42.3-0.1 0.8 0 0.8 0.8v2.5q0 0.1 0 0.3-0.1 0.1-0.2 0.2-0.1 0.1-0.2 0.2-0.2 0-0.3 0l-41.8 0.1q-4.3 0-4.3 4.3v24q0 0.8 0.8 0.8z"
	/>
</svg>
